# xmcd
#
# Track frame offsets: 
#        150
#        9707
#        17740
#        28482
#        42985
#        53235
#        64055
#        77137
#        93872
#        115867
#        131110
#        148580
#        164532
#        185612
#        195260
#        208785
#
# Disc length: 2953 seconds
#
# Revision: 1
# Processed by: cddbd v1.5.1PL0 Copyright (c) Steve Scherf et al.
# Submitted via: ExactAudioCopy v0.95b2
#
DISCID=e40b8710
DTITLE=Various Artist - From Spirituals to Swing - The Legendary 1938
DTITLE=and 1939 Carnegie Hall Concerts Produced by John Hammond - Disc 
DTITLE=2 of 3
DYEAR=1900
DGENRE=
TTITLE0=New Orleans Fleetwarmers - Weary Blues
TTITLE1=New Orleans Fleetwarmers - Milenberg Joys
TTITLE2=New Orleans Fleetwarmers - I Wish I Could Shimmy Like My Siste
TTITLE2=r Kate
TTITLE3=Big Bill Broonzy with Albert Ammons - It Was Just a Dream
TTITLE4=Sonny Terry - Fox Chase
TTITLE5=James P. Johnson - Carolina Shout
TTITLE6=Count Basie and His Orchestra - Every Tub
TTITLE7=Jimmy Rushing with Count Basie and His Orchestra - Stealin' Blue
TTITLE7=s
TTITLE8=Kansas City Six - After You've Gone
TTITLE9=Kansas City Five - Oh, Lady Be Good
TTITLE10=Kansas City Five - Allez-Oop
TTITLE11=Kansas City Five - Mortgage Stomp
TTITLE12=Sterling A. Brown - Spoken Introduction
TTITLE13=Golden Gate Quartet - Gospel Train
TTITLE14=Golden Gate Quartet - I'm on My Way
TTITLE15=Golden Gate Quartet - Noah
EXTD=
EXTT0=
EXTT1=
EXTT2=
EXTT3=
EXTT4=
EXTT5=
EXTT6=
EXTT7=
EXTT8=
EXTT9=
EXTT10=
EXTT11=
EXTT12=
EXTT13=
EXTT14=
EXTT15=
PLAYORDER=
